<svg xmlns="http://www.w3.org/2000/svg" width="132.529" height="38.02" viewBox="0 0 132.529 38.02">
  <g id="Group_6" data-name="Group 6" transform="translate(-121.616 -91.378)">
    <g id="Group_1" data-name="Group 1" transform="translate(378.236 -278.539)">
      <path id="Path_1" data-name="Path 1" d="M-30.822,18.426a7.976,7.976,0,0,1-5.4-2.278l2.464-3.951a4.1,4.1,0,0,0,2.827,1.317,1.592,1.592,0,0,0,1.3-.73,2.549,2.549,0,0,0,.544-1.548q0-.819-7.538-19.507h5.8l4.747,11.925,4.747-11.925h5.8L-24.588,14.3a6.377,6.377,0,0,1-2.482,3.044A6.78,6.78,0,0,1-30.822,18.426ZM-.235,2.052V-8.272H5.237V10.88H-.235V8.352a6.2,6.2,0,0,1-5.237,2.812,7.706,7.706,0,0,1-5.382-1.976,7.515,7.515,0,0,1-2.174-5.856v-11.6h5.472V2.158q0,4.414,3.3,4.414A3.93,3.93,0,0,0-1.431,5.416,4.468,4.468,0,0,0-.235,2.052ZM21.726-8.592A8.183,8.183,0,0,1,27.8-5.8a9.784,9.784,0,0,1,2.664,7.03A9.972,9.972,0,0,1,27.8,8.317a8.281,8.281,0,0,1-6.233,2.848,6.907,6.907,0,0,1-5.744-2.812v9.433H10.383V-8.272h5.436v2.136A8.149,8.149,0,0,1,21.726-8.592Zm-5.98,9.914a5.494,5.494,0,0,0,1.323,3.809,4.15,4.15,0,0,0,3.207,1.477,4.428,4.428,0,0,0,3.3-1.477A5.259,5.259,0,0,0,24.987,1.34,5.665,5.665,0,0,0,23.61-2.54a4.248,4.248,0,0,0-3.3-1.566,4.108,4.108,0,0,0-3.243,1.548A5.765,5.765,0,0,0,15.746,1.322ZM44.774-3.573A4.142,4.142,0,0,0,41.15-1.882a7.581,7.581,0,0,0-1.2,4.467V10.88H34.519V-8.272h5.436v2.527a9.113,9.113,0,0,1,2.627-1.993,7.239,7.239,0,0,1,3.207-.854l.036,5.019ZM54.849,10.88H49.413V-8.272h5.436ZM65.431.2V10.88H60V-8.272h5.436v2.136a7.673,7.673,0,0,1,5.545-2.456A6.926,6.926,0,0,1,76.14-6.456a7.806,7.806,0,0,1,2.084,5.7V10.88H72.788V.058q0-4.414-3.3-4.414A3.991,3.991,0,0,0,66.645-3.2,4.479,4.479,0,0,0,65.431.2ZM89.349-4.427V4.152a2.436,2.436,0,0,0,.58,1.726,1.82,1.82,0,0,0,1.377.623,3.156,3.156,0,0,0,2.573-1.353l2.029,3.738a7.919,7.919,0,0,1-5.345,2.278,6.687,6.687,0,0,1-4.747-1.815A6.45,6.45,0,0,1,83.877,4.4V-4.427H81.594V-8.272h2.283V-14h5.472v5.731H94.06v3.845Z" transform="translate(-220 389.511)" fill="#fff"/>
      <circle id="Ellipse_1" data-name="Ellipse 1" cx="3.706" cy="3.706" r="3.706" transform="translate(-172.978 369.917)" fill="#d800e8" opacity="0.8"/>
      <circle id="Ellipse_2" data-name="Ellipse 2" cx="3.706" cy="3.706" r="3.706" transform="translate(-170.318 369.917)" fill="#00b8e8" opacity="0.8"/>
    </g>
  </g>
</svg>
