<svg xmlns="http://www.w3.org/2000/svg" xmlns:xlink="http://www.w3.org/1999/xlink" width="387.5" height="105.077" viewBox="0 0 387.5 105.077"><defs><linearGradient id="a" x1="-0.099" y1="-3.531" x2="0.697" y2="1.994" gradientUnits="objectBoundingBox"><stop offset="0" stop-color="#8e54e9"/><stop offset="1" stop-color="#4776e6"/></linearGradient><linearGradient id="b" x1="0.667" y1="1.429" x2="0.395" y2="0.052" xlink:href="#a"/><linearGradient id="c" x1="0.369" y1="1.288" x2="0.671" y2="-0.275" xlink:href="#a"/></defs><g transform="translate(-186.5 -223.775)"><path d="M574,259.376v69.476H186.5V256.744a2.434,2.434,0,0,1,.306.167c1.557.815,3.133,1.677,4.717,2.567,63.387,33.959,86.038,17.99,114.761.269,8.953-5.515,18.5-11.215,30.057-15.617a135.649,135.649,0,0,1,18.24-5.654c35.1-8.036,55.49,6.265,106.549,26.368,1.288.51,2.586,1.02,3.911,1.53a114.55,114.55,0,0,0,33.181,7.359C528.576,275.976,556.576,266.911,574,259.376Z" opacity="0.53" fill="url(#a)"/><path d="M574,241.368v87.484H186.5V256.744c10.964-9.324,69.466-56.426,168.081-18.268q11.094,4.282,22.865,10c33.5,18.666,60.217,20.594,83.684,16.367,34.247-6.154,61.551-25.423,92.86-24.885q3.183.056,6.228.2Q567.488,240.525,574,241.368Z" opacity="0.53" fill="url(#b)"/><path d="M574,238.281v90.571H186.5V257.179c.1-.092.2-.185.306-.268a77.888,77.888,0,0,1,49.28-19.5c26.59-1.844,48.278,8.286,70.2,22.337,6.173,3.957,12.364,8.221,18.694,12.623,24.673,17.147,52.858,25.2,81.089,26.415,30.335,1.307,64.211-4.671,90.691-23.959.491-.361.982-.723,1.464-1.093,11.335-8.536,20.52-18.787,33.218-24.858a108.54,108.54,0,0,1,28.778-8.712C564.778,239.384,569.384,238.791,574,238.281Z" opacity="0.54" fill="url(#c)"/></g></svg>